<svg width="175" height="28" viewBox="0 0 175 28" fill="none" xmlns="http://www.w3.org/2000/svg">
<rect x="2.34027" width="36.1714" height="20.8669" rx="2" transform="rotate(6.43935 2.34027 0)" fill="#70A6D6"/>
<path d="M45.3231 8.58735C45.4555 8.58735 45.6173 8.60206 45.8084 8.63147C45.9996 8.66088 46.1835 8.705 46.3599 8.76383C46.5364 8.82266 46.6835 8.90354 46.8011 9.00649C46.9188 9.10943 46.9776 9.22709 46.9776 9.35944C46.9776 9.97712 46.9703 10.5213 46.9556 10.9919C46.9408 11.4625 46.9188 11.911 46.8894 12.3375C46.8747 12.6464 46.9482 12.8008 47.11 12.8008C47.2129 12.8008 47.3379 12.7272 47.485 12.5802C47.6909 12.3743 47.9262 12.1316 48.1909 11.8522C48.4703 11.5728 48.7424 11.2934 49.0071 11.0139C49.2865 10.7198 49.5586 10.4404 49.8233 10.1757C50.1028 9.89623 50.3454 9.65358 50.5513 9.44768C50.7425 9.2565 50.9704 9.10208 51.2352 8.98443C51.5146 8.86678 51.7866 8.80795 52.0514 8.80795H54.0368C54.3015 8.80795 54.4559 8.86678 54.5 8.98443C54.5588 9.10208 54.4927 9.2565 54.3015 9.44768C54.0073 9.74181 53.6544 10.1021 53.2426 10.5286C52.8308 10.9551 52.4117 11.3889 51.9852 11.8301C51.5587 12.2713 51.1616 12.6905 50.794 13.0876C50.4263 13.4846 50.1395 13.7935 49.9336 14.0141C49.7571 14.22 49.7571 14.4258 49.9336 14.6317C50.1395 14.8523 50.4263 15.1612 50.794 15.5583C51.1616 15.9553 51.5587 16.3745 51.9852 16.8157C52.4117 17.2569 52.8308 17.6907 53.2426 18.1172C53.6544 18.5437 54.0073 18.904 54.3015 19.1981C54.4927 19.3893 54.5588 19.5437 54.5 19.6614C54.4559 19.779 54.3015 19.8379 54.0368 19.8379H52.0514C51.7866 19.8379 51.5146 19.779 51.2352 19.6614C50.9704 19.5437 50.7425 19.3893 50.5513 19.1981C50.3454 18.9922 50.1028 18.7496 49.8233 18.4701C49.5586 18.1907 49.2865 17.9113 49.0071 17.6319C48.7424 17.3377 48.4703 17.0583 48.1909 16.7936C47.9262 16.5142 47.6909 16.2715 47.485 16.0656C47.3379 15.9186 47.2129 15.845 47.11 15.845C46.9629 15.845 46.8967 15.9994 46.9114 16.3083C46.9261 16.7054 46.9408 17.176 46.9556 17.7201C46.9703 18.2643 46.9776 18.7863 46.9776 19.2864C46.9776 19.4187 46.9188 19.5364 46.8011 19.6393C46.6835 19.7423 46.5364 19.8232 46.3599 19.882C46.1835 19.9408 45.9996 19.9849 45.8084 20.0143C45.6173 20.0437 45.4555 20.0585 45.3231 20.0585C45.1908 20.0585 45.029 20.0437 44.8378 20.0143C44.6466 19.9849 44.4628 19.9408 44.2863 19.882C44.1098 19.8232 43.9628 19.7423 43.8451 19.6393C43.7275 19.5364 43.6686 19.4187 43.6686 19.2864C43.6686 19.154 43.676 18.9775 43.6907 18.7569C43.7054 18.5216 43.7128 18.2201 43.7128 17.8525C43.7275 17.4701 43.7422 16.9921 43.7569 16.4186C43.7716 15.845 43.7789 15.1465 43.7789 14.3229C43.7789 13.4993 43.7716 12.8008 43.7569 12.2272C43.7422 11.6537 43.7275 11.1831 43.7128 10.8154C43.7128 10.433 43.7054 10.1315 43.6907 9.91094C43.676 9.67564 43.6686 9.4918 43.6686 9.35944C43.6686 9.22709 43.7275 9.10943 43.8451 9.00649C43.9628 8.90354 44.1098 8.82266 44.2863 8.76383C44.4628 8.705 44.6466 8.66088 44.8378 8.63147C45.029 8.60206 45.1908 8.58735 45.3231 8.58735Z" fill="#033C7D"/>
<path d="M56.3194 14.3229C56.3194 13.8523 56.3121 13.4185 56.2974 13.0214C56.2827 12.6243 56.2606 12.2419 56.2312 11.8743C56.2165 11.4919 56.1944 11.1169 56.165 10.7492C56.1503 10.3815 56.1356 9.99183 56.1209 9.58004C56.1062 9.31532 56.1797 9.10208 56.3415 8.94031C56.5033 8.77854 56.7165 8.71236 56.9812 8.74177C57.1577 8.75648 57.3121 8.77118 57.4445 8.78589C57.5915 8.8006 57.768 8.80795 57.9739 8.80795C58.4739 8.80795 58.9078 8.78589 59.2754 8.74177C59.6578 8.69765 60.0034 8.64618 60.3123 8.58735C60.6358 8.52853 60.9446 8.47705 61.2388 8.43293C61.5329 8.38881 61.8417 8.36675 62.1653 8.36675C63.0624 8.36675 63.8712 8.51382 64.5919 8.80795C65.3272 9.08737 65.9522 9.4918 66.4669 10.0212C66.9964 10.536 67.4008 11.161 67.6802 11.8963C67.9744 12.6169 68.1214 13.4258 68.1214 14.3229C68.1214 15.22 67.9744 16.0362 67.6802 16.7715C67.4008 17.4922 66.9964 18.1172 66.4669 18.6466C65.9522 19.1614 65.3272 19.5584 64.5919 19.8379C63.8712 20.132 63.0624 20.2791 62.1653 20.2791C61.9888 20.2791 61.7829 20.2643 61.5476 20.2349C61.3123 20.2055 61.0696 20.1688 60.8196 20.1246C60.5843 20.0952 60.349 20.0585 60.1137 20.0143C59.8784 19.9849 59.6799 19.9555 59.5181 19.9261C59.224 19.882 59.0916 19.9996 59.121 20.2791C59.1651 20.7938 59.1872 21.7497 59.1872 23.1468C59.1872 23.2792 59.1284 23.3968 59.0107 23.4998C58.9078 23.6027 58.7754 23.6836 58.6136 23.7424C58.4666 23.8013 58.2975 23.8454 58.1063 23.8748C57.9298 23.9042 57.7754 23.9189 57.643 23.9189C57.5107 23.9189 57.3489 23.9042 57.1577 23.8748C56.9812 23.8454 56.8121 23.8013 56.6503 23.7424C56.5033 23.6836 56.3709 23.6027 56.2532 23.4998C56.1503 23.3968 56.0988 23.2792 56.0988 23.1468C56.0988 22.6027 56.1062 21.9335 56.1209 21.1394C56.1503 20.3599 56.1797 19.5584 56.2091 18.7349C56.2385 17.9113 56.2606 17.1098 56.2753 16.3303C56.3047 15.5362 56.3194 14.867 56.3194 14.3229ZM62.1653 17.6319C63.1653 17.6319 63.9301 17.3892 64.4595 16.9039C64.9889 16.4039 65.2536 15.5435 65.2536 14.3229C65.2536 13.1023 64.9889 12.2493 64.4595 11.764C63.9301 11.2639 63.1653 11.0139 62.1653 11.0139C61.1652 11.0139 60.4005 11.2639 59.8711 11.764C59.3416 12.2493 59.0769 13.1023 59.0769 14.3229C59.0769 15.5435 59.3416 16.4039 59.8711 16.9039C60.4005 17.3892 61.1652 17.6319 62.1653 17.6319Z" fill="#033C7D"/>
<path d="M75.4012 8.36675C76.1512 8.36675 76.8498 8.4697 77.4968 8.67559C78.1586 8.86677 78.7322 9.13149 79.2175 9.46974C79.7028 9.80799 80.0852 10.2124 80.3646 10.683C80.6588 11.1536 80.8058 11.6684 80.8058 12.2272C80.8058 12.9184 80.6588 13.4993 80.3646 13.9699C80.0852 14.4258 79.7028 14.8009 79.2175 15.095C78.7322 15.3744 78.1586 15.573 77.4968 15.6906C76.8498 15.8083 76.1512 15.8671 75.4012 15.8671C74.857 15.8671 74.357 15.8303 73.9011 15.7568C73.4599 15.6833 73.1069 15.6097 72.8422 15.5362C72.6952 15.5068 72.5849 15.5288 72.5113 15.6024C72.4525 15.6612 72.4378 15.7494 72.4672 15.8671C72.5113 16.0436 72.5922 16.2348 72.7099 16.4406C72.8275 16.6465 72.9966 16.8377 73.2172 17.0142C73.4378 17.1907 73.7246 17.3377 74.0776 17.4554C74.4305 17.573 74.8717 17.6319 75.4012 17.6319C75.8129 17.6319 76.1659 17.6025 76.46 17.5436C76.7689 17.4701 77.0336 17.3819 77.2542 17.2789C77.4748 17.176 77.666 17.0583 77.8277 16.926C77.9895 16.7936 78.1366 16.6612 78.2689 16.5289C78.4748 16.323 78.7322 16.22 79.041 16.22C79.2175 16.22 79.3866 16.2568 79.5484 16.3303C79.7249 16.4039 79.8793 16.5068 80.0117 16.6392C80.144 16.7568 80.2543 16.9039 80.3426 17.0804C80.4308 17.2422 80.4749 17.426 80.4749 17.6319C80.4749 17.9113 80.3646 18.2054 80.144 18.5143C79.9234 18.8231 79.5999 19.1099 79.1734 19.3746C78.7469 19.6393 78.2175 19.8526 77.5851 20.0143C76.9527 20.1908 76.2247 20.2791 75.4012 20.2791C74.4894 20.2791 73.6658 20.132 72.9305 19.8379C72.1951 19.5584 71.5701 19.154 71.0554 18.6246C70.5407 18.0951 70.1436 17.4701 69.8641 16.7495C69.5847 16.0142 69.445 15.2053 69.445 14.3229C69.445 13.4405 69.5847 12.639 69.8641 11.9184C70.1436 11.1831 70.5407 10.5507 71.0554 10.0212C71.5701 9.4918 72.1951 9.08737 72.9305 8.80795C73.6658 8.51382 74.4894 8.36675 75.4012 8.36675ZM72.8422 13.1096C73.1216 13.1684 73.4967 13.242 73.9673 13.3302C74.4379 13.4037 74.9158 13.4405 75.4012 13.4405C76.1218 13.4405 76.7248 13.3376 77.2101 13.1317C77.6954 12.9111 77.938 12.6096 77.938 12.2272C77.938 11.8448 77.6954 11.5507 77.2101 11.3448C76.7248 11.1242 76.1218 11.0139 75.4012 11.0139C74.9011 11.0139 74.4747 11.0654 74.1217 11.1683C73.7687 11.2713 73.4746 11.4037 73.2393 11.5654C73.0187 11.7125 72.8496 11.8743 72.7319 12.0507C72.6143 12.2272 72.5334 12.3963 72.4893 12.5581C72.4599 12.6758 72.4746 12.7934 72.5334 12.9111C72.6069 13.014 72.7099 13.0802 72.8422 13.1096Z" fill="#033C7D"/>
<path d="M88.0899 8.36675C88.4281 8.36675 88.737 8.38881 89.0164 8.43293C89.3105 8.47705 89.612 8.52853 89.9208 8.58735C90.2444 8.64618 90.59 8.69765 90.9576 8.74177C91.34 8.78589 91.7812 8.80795 92.2812 8.80795C92.4871 8.80795 92.6563 8.8006 92.7886 8.78589C92.9357 8.77118 93.0974 8.75648 93.2739 8.74177C93.5386 8.71236 93.7519 8.77854 93.9137 8.94031C94.0754 9.10208 94.149 9.31532 94.1343 9.58004C94.1196 9.99183 94.0975 10.3815 94.0681 10.7492C94.0534 11.1169 94.0313 11.4919 94.0019 11.8743C93.9872 12.2419 93.9725 12.6243 93.9578 13.0214C93.9431 13.4185 93.9357 13.8523 93.9357 14.3229C93.9357 15.4259 93.9725 16.5289 94.046 17.6319C94.1196 18.7349 94.1563 19.8379 94.1563 20.9408C94.1563 21.7644 94.0019 22.4777 93.6931 23.0806C93.3989 23.6983 92.9798 24.2057 92.4357 24.6028C91.9062 24.9999 91.2665 25.294 90.5164 25.4852C89.7811 25.6911 88.9723 25.794 88.0899 25.794C87.2663 25.794 86.5383 25.7058 85.9059 25.5293C85.2736 25.3675 84.7441 25.1543 84.3176 24.8896C83.8912 24.6248 83.5676 24.3381 83.347 24.0292C83.1264 23.7204 83.0161 23.4263 83.0161 23.1468C83.0161 22.9556 83.0602 22.7718 83.1485 22.5953C83.2367 22.4189 83.347 22.2644 83.4794 22.1321C83.6117 22.0144 83.7588 21.9188 83.9206 21.8453C84.097 21.7718 84.2735 21.735 84.45 21.735C84.7588 21.735 85.0162 21.8379 85.2221 22.0438C85.3545 22.1762 85.5015 22.3086 85.6633 22.4409C85.8251 22.5733 86.0162 22.6909 86.2368 22.7939C86.4574 22.8968 86.7148 22.9777 87.0089 23.0365C87.3178 23.1101 87.6781 23.1468 88.0899 23.1468C88.7075 23.1468 89.2076 23.088 89.5899 22.9704C89.9723 22.8527 90.2664 22.6689 90.4723 22.4189C90.6929 22.1836 90.84 21.8894 90.9135 21.5365C91.0018 21.1835 91.0532 20.7644 91.0679 20.2791C91.0679 20.1467 91.0238 20.0437 90.9356 19.9702C90.8621 19.9114 90.7591 19.8967 90.6268 19.9261C90.4797 19.9702 90.2959 20.007 90.0753 20.0364C89.8694 20.0805 89.6488 20.1173 89.4135 20.1467C89.1782 20.1908 88.9428 20.2202 88.7075 20.2349C88.4869 20.2643 88.2811 20.2791 88.0899 20.2791C87.2075 20.2791 86.3986 20.132 85.6633 19.8379C84.9427 19.5584 84.3176 19.154 83.7882 18.6246C83.2588 18.0951 82.847 17.4701 82.5529 16.7495C82.2734 16.0142 82.1337 15.2053 82.1337 14.3229C82.1337 13.4405 82.2734 12.639 82.5529 11.9184C82.847 11.1831 83.2588 10.5507 83.7882 10.0212C84.3176 9.4918 84.9427 9.08737 85.6633 8.80795C86.3986 8.51382 87.2075 8.36675 88.0899 8.36675ZM85.0015 14.3229C85.0015 15.5435 85.2662 16.4039 85.7956 16.9039C86.3251 17.3892 87.0898 17.6319 88.0899 17.6319C89.0899 17.6319 89.8547 17.3892 90.3841 16.9039C90.9135 16.4039 91.1782 15.5435 91.1782 14.3229C91.1782 13.1023 90.9135 12.2493 90.3841 11.764C89.8547 11.2639 89.0899 11.0139 88.0899 11.0139C87.0898 11.0139 86.3251 11.2639 85.7956 11.764C85.2662 12.2493 85.0015 13.1023 85.0015 14.3229Z" fill="#033C7D"/>
<path d="M97.7962 8.58735C97.9285 8.58735 98.0903 8.60206 98.2815 8.63147C98.4727 8.66088 98.6565 8.705 98.833 8.76383C99.0095 8.82266 99.1565 8.90354 99.2742 9.00649C99.3918 9.10943 99.4507 9.22709 99.4507 9.35944C99.4507 9.77123 99.4433 10.161 99.4286 10.5286C99.4139 10.8816 99.3992 11.2492 99.3845 11.6316C99.3845 12.014 99.3771 12.4184 99.3624 12.8449C99.3477 13.2714 99.3404 13.7641 99.3404 14.3229C99.3404 15.5435 99.5683 16.4039 100.024 16.9039C100.48 17.3892 101.208 17.6319 102.208 17.6319C103.208 17.6319 103.936 17.3892 104.392 16.9039C104.848 16.4039 105.076 15.5435 105.076 14.3229C105.076 13.7641 105.069 13.2714 105.054 12.8449C105.039 12.4184 105.024 12.014 105.01 11.6316C105.01 11.2492 105.002 10.8816 104.988 10.5286C104.973 10.161 104.966 9.77123 104.966 9.35944C104.966 9.22709 105.024 9.10943 105.142 9.00649C105.26 8.90354 105.407 8.82266 105.583 8.76383C105.76 8.705 105.944 8.66088 106.135 8.63147C106.326 8.60206 106.488 8.58735 106.62 8.58735C106.752 8.58735 106.914 8.60206 107.105 8.63147C107.297 8.66088 107.48 8.705 107.657 8.76383C107.833 8.82266 107.98 8.90354 108.098 9.00649C108.216 9.10943 108.275 9.22709 108.275 9.35944C108.275 9.77123 108.26 10.161 108.23 10.5286C108.216 10.8816 108.194 11.2492 108.164 11.6316C108.135 12.014 108.105 12.4184 108.076 12.8449C108.061 13.2714 108.054 13.7641 108.054 14.3229C108.054 14.7935 108.061 15.2274 108.076 15.6244C108.091 16.0215 108.105 16.4112 108.12 16.7936C108.15 17.1613 108.172 17.5289 108.186 17.8966C108.216 18.2643 108.238 18.654 108.253 19.0658C108.267 19.3305 108.194 19.5437 108.032 19.7055C107.87 19.8673 107.657 19.9334 107.392 19.904C107.216 19.8893 107.054 19.8746 106.907 19.8599C106.775 19.8452 106.605 19.8379 106.4 19.8379C105.899 19.8379 105.458 19.8599 105.076 19.904C104.708 19.9482 104.363 19.9996 104.039 20.0585C103.73 20.1173 103.429 20.1688 103.135 20.2129C102.855 20.257 102.546 20.2791 102.208 20.2791C101.326 20.2791 100.517 20.132 99.7816 19.8379C99.0609 19.5584 98.4359 19.154 97.9065 18.6246C97.3771 18.0951 96.9653 17.4701 96.6711 16.7495C96.3917 16.0142 96.252 15.2053 96.252 14.3229C96.252 13.7641 96.2446 13.2714 96.2299 12.8449C96.2152 12.4184 96.2005 12.014 96.1858 11.6316C96.1858 11.2492 96.1785 10.8816 96.1638 10.5286C96.1491 10.161 96.1417 9.77123 96.1417 9.35944C96.1417 9.22709 96.2005 9.10943 96.3182 9.00649C96.4358 8.90354 96.5829 8.82266 96.7594 8.76383C96.9359 8.705 97.1197 8.66088 97.3109 8.63147C97.5021 8.60206 97.6638 8.58735 97.7962 8.58735Z" fill="#033C7D"/>
<path d="M110.473 9.58004C110.473 9.31532 110.554 9.10943 110.715 8.96237C110.892 8.8006 111.105 8.72706 111.355 8.74177C111.532 8.75648 111.686 8.77118 111.818 8.78589C111.966 8.8006 112.142 8.80795 112.348 8.80795C112.848 8.80795 113.252 8.78589 113.561 8.74177C113.885 8.69765 114.172 8.64618 114.422 8.58735C114.672 8.52853 114.914 8.47705 115.15 8.43293C115.385 8.38881 115.664 8.36675 115.988 8.36675C116.488 8.36675 116.929 8.41823 117.311 8.52117C117.694 8.62412 118.025 8.74912 118.304 8.89619C118.598 9.04325 118.848 9.19767 119.054 9.35944C119.26 9.52122 119.429 9.66093 119.561 9.77858C119.782 9.96977 119.973 9.96977 120.135 9.77858C120.253 9.64622 120.407 9.49916 120.598 9.33738C120.804 9.17561 121.054 9.02119 121.348 8.87413C121.642 8.72706 121.981 8.60941 122.363 8.52117C122.76 8.41823 123.209 8.36675 123.709 8.36675C124.591 8.36675 125.371 8.51382 126.047 8.80795C126.724 9.08737 127.282 9.4918 127.724 10.0212C128.179 10.5507 128.525 11.1831 128.76 11.9184C128.996 12.639 129.113 13.4405 129.113 14.3229C129.113 14.867 129.121 15.3597 129.135 15.8009C129.15 16.2274 129.157 16.6318 129.157 17.0142C129.172 17.3966 129.187 17.7716 129.202 18.1392C129.216 18.4922 129.224 18.8746 129.224 19.2864C129.224 19.4187 129.165 19.5364 129.047 19.6393C128.93 19.7423 128.782 19.8232 128.606 19.882C128.43 19.9408 128.246 19.9849 128.054 20.0143C127.863 20.0437 127.702 20.0585 127.569 20.0585C127.437 20.0585 127.275 20.0437 127.084 20.0143C126.893 19.9849 126.709 19.9408 126.532 19.882C126.356 19.8232 126.209 19.7423 126.091 19.6393C125.974 19.5364 125.915 19.4187 125.915 19.2864C125.915 18.8746 125.922 18.4922 125.937 18.1392C125.951 17.7716 125.959 17.3966 125.959 17.0142C125.974 16.6318 125.988 16.2274 126.003 15.8009C126.018 15.3597 126.025 14.867 126.025 14.3229C126.025 13.7199 125.996 13.2126 125.937 12.8008C125.893 12.3743 125.782 12.0287 125.606 11.764C125.444 11.4992 125.209 11.3081 124.9 11.1904C124.606 11.0728 124.209 11.0139 123.709 11.0139C123.209 11.0139 122.804 11.0728 122.495 11.1904C122.201 11.3081 121.973 11.4992 121.812 11.764C121.65 12.0287 121.54 12.3743 121.481 12.8008C121.422 13.2126 121.392 13.7199 121.392 14.3229C121.392 14.867 121.4 15.3597 121.414 15.8009C121.429 16.2274 121.437 16.6318 121.437 17.0142C121.451 17.3966 121.466 17.7716 121.481 18.1392C121.495 18.4922 121.503 18.8746 121.503 19.2864C121.503 19.4187 121.444 19.5364 121.326 19.6393C121.209 19.7423 121.062 19.8232 120.885 19.882C120.709 19.9408 120.525 19.9849 120.334 20.0143C120.142 20.0437 119.981 20.0585 119.848 20.0585C119.716 20.0585 119.554 20.0437 119.363 20.0143C119.172 19.9849 118.988 19.9408 118.811 19.882C118.635 19.8232 118.488 19.7423 118.37 19.6393C118.253 19.5364 118.194 19.4187 118.194 19.2864C118.194 18.8746 118.201 18.4922 118.216 18.1392C118.231 17.7716 118.238 17.3966 118.238 17.0142C118.253 16.6318 118.267 16.2274 118.282 15.8009C118.297 15.3597 118.304 14.867 118.304 14.3229C118.304 13.7199 118.275 13.2126 118.216 12.8008C118.172 12.3743 118.061 12.0287 117.885 11.764C117.723 11.4992 117.488 11.3081 117.179 11.1904C116.885 11.0728 116.488 11.0139 115.988 11.0139C115.488 11.0139 115.083 11.0728 114.774 11.1904C114.48 11.3081 114.252 11.4992 114.091 11.764C113.929 12.0287 113.819 12.3743 113.76 12.8008C113.701 13.2126 113.671 13.7199 113.671 14.3229C113.671 14.867 113.679 15.3597 113.694 15.8009C113.708 16.2274 113.716 16.6318 113.716 17.0142C113.73 17.3966 113.745 17.7716 113.76 18.1392C113.774 18.4922 113.782 18.8746 113.782 19.2864C113.782 19.4187 113.723 19.5364 113.605 19.6393C113.488 19.7423 113.341 19.8232 113.164 19.882C112.988 19.9408 112.804 19.9849 112.613 20.0143C112.421 20.0437 112.26 20.0585 112.127 20.0585C111.995 20.0585 111.833 20.0437 111.642 20.0143C111.451 19.9849 111.267 19.9408 111.09 19.882C110.914 19.8232 110.767 19.7423 110.649 19.6393C110.532 19.5364 110.473 19.4187 110.473 19.2864C110.473 18.8746 110.48 18.4922 110.495 18.1392C110.51 17.7716 110.517 17.3966 110.517 17.0142C110.532 16.6318 110.546 16.2274 110.561 15.8009C110.576 15.3597 110.583 14.867 110.583 14.3229C110.583 13.8523 110.576 13.4185 110.561 13.0214C110.561 12.6243 110.554 12.2419 110.539 11.8743C110.524 11.4919 110.51 11.1169 110.495 10.7492C110.48 10.3815 110.473 9.99183 110.473 9.58004Z" fill="#033C7D"/>
<path d="M130.777 14.3229C130.777 13.4405 130.917 12.639 131.196 11.9184C131.491 11.1831 131.902 10.5507 132.432 10.0212C132.961 9.4918 133.586 9.08737 134.307 8.80795C135.042 8.51382 135.851 8.36675 136.733 8.36675C137.072 8.36675 137.381 8.38881 137.66 8.43293C137.954 8.47705 138.256 8.52853 138.564 8.58735C138.888 8.64618 139.234 8.69765 139.601 8.74177C139.984 8.78589 140.425 8.80795 140.925 8.80795C141.131 8.80795 141.3 8.8006 141.432 8.78589C141.579 8.77118 141.741 8.75648 141.918 8.74177C142.182 8.71236 142.395 8.77854 142.557 8.94031C142.719 9.10208 142.793 9.31532 142.778 9.58004C142.763 9.99183 142.741 10.3815 142.712 10.7492C142.697 11.1169 142.675 11.4919 142.646 11.8743C142.631 12.2419 142.616 12.6243 142.601 13.0214C142.587 13.4185 142.579 13.8523 142.579 14.3229C142.579 14.7935 142.587 15.2274 142.601 15.6244C142.616 16.0215 142.631 16.4112 142.646 16.7936C142.675 17.1613 142.697 17.5289 142.712 17.8966C142.741 18.2643 142.763 18.654 142.778 19.0658C142.793 19.3305 142.719 19.5437 142.557 19.7055C142.395 19.8673 142.182 19.9334 141.918 19.904C141.741 19.8893 141.579 19.8746 141.432 19.8599C141.3 19.8452 141.131 19.8379 140.925 19.8379C140.381 19.8379 139.917 19.8599 139.535 19.904C139.153 19.9482 138.807 19.9996 138.498 20.0585C138.189 20.1173 137.903 20.1688 137.638 20.2129C137.373 20.257 137.072 20.2791 136.733 20.2791C135.851 20.2791 135.042 20.132 134.307 19.8379C133.586 19.5584 132.961 19.154 132.432 18.6246C131.902 18.0951 131.491 17.4701 131.196 16.7495C130.917 16.0142 130.777 15.2053 130.777 14.3229ZM136.733 17.6319C137.734 17.6319 138.498 17.3892 139.028 16.9039C139.557 16.4039 139.822 15.5435 139.822 14.3229C139.822 13.1023 139.557 12.2493 139.028 11.764C138.498 11.2639 137.734 11.0139 136.733 11.0139C135.733 11.0139 134.969 11.2639 134.439 11.764C133.91 12.2493 133.645 13.1023 133.645 14.3229C133.645 15.5435 133.91 16.4039 134.439 16.9039C134.969 17.3892 135.733 17.6319 136.733 17.6319Z" fill="#033C7D"/>
<path d="M145.006 19.2864C145.006 18.8746 145.013 18.4922 145.028 18.1392C145.057 17.7716 145.087 17.3966 145.116 17.0142C145.146 16.6318 145.168 16.2274 145.182 15.8009C145.212 15.3597 145.227 14.867 145.227 14.3229C145.227 13.8523 145.219 13.4185 145.204 13.0214C145.19 12.6243 145.168 12.2419 145.138 11.8743C145.124 11.4919 145.101 11.1169 145.072 10.7492C145.057 10.3815 145.043 9.99183 145.028 9.58004C145.013 9.31532 145.087 9.10208 145.249 8.94031C145.41 8.77854 145.624 8.71236 145.888 8.74177C146.065 8.75648 146.219 8.77118 146.352 8.78589C146.499 8.8006 146.675 8.80795 146.881 8.80795H148.315C148.609 8.80795 148.83 8.93296 148.977 9.18297L152.506 15.6024C152.653 15.8524 152.8 15.8524 152.947 15.6024L156.477 9.18297C156.624 8.93296 156.845 8.80795 157.139 8.80795H158.573C158.779 8.80795 158.948 8.8006 159.08 8.78589C159.227 8.77118 159.389 8.75648 159.565 8.74177C159.83 8.71236 160.043 8.77854 160.205 8.94031C160.367 9.10208 160.44 9.31532 160.426 9.58004C160.411 9.99183 160.389 10.3815 160.36 10.7492C160.345 11.1169 160.323 11.4919 160.293 11.8743C160.279 12.2419 160.264 12.6243 160.249 13.0214C160.235 13.4185 160.227 13.8523 160.227 14.3229C160.227 14.867 160.235 15.3597 160.249 15.8009C160.279 16.2274 160.308 16.6318 160.337 17.0142C160.367 17.3966 160.389 17.7716 160.404 18.1392C160.433 18.4922 160.448 18.8746 160.448 19.2864C160.448 19.4187 160.389 19.5364 160.271 19.6393C160.154 19.7423 160.007 19.8232 159.83 19.882C159.654 19.9408 159.47 19.9849 159.279 20.0143C159.087 20.0437 158.926 20.0585 158.793 20.0585C158.661 20.0585 158.499 20.0437 158.308 20.0143C158.117 19.9849 157.933 19.9408 157.756 19.882C157.58 19.8232 157.433 19.7423 157.315 19.6393C157.198 19.5364 157.139 19.4187 157.139 19.2864C157.139 18.5952 157.146 17.8304 157.161 16.9921C157.176 16.1392 157.198 15.2494 157.227 14.3229C157.256 13.9552 157.212 13.7714 157.095 13.7714C157.006 13.7714 156.889 13.9111 156.742 14.1905L154.028 19.4408C153.881 19.7055 153.668 19.8379 153.389 19.8379H152.065C151.786 19.8379 151.572 19.7055 151.425 19.4408L148.712 14.1905C148.58 13.9111 148.462 13.7714 148.359 13.7714C148.256 13.7714 148.205 13.9552 148.205 14.3229C148.219 15.2494 148.241 16.1392 148.271 16.9921C148.3 17.8304 148.315 18.5952 148.315 19.2864C148.315 19.4187 148.256 19.5364 148.138 19.6393C148.021 19.7423 147.874 19.8232 147.697 19.882C147.521 19.9408 147.337 19.9849 147.146 20.0143C146.955 20.0437 146.793 20.0585 146.66 20.0585C146.528 20.0585 146.366 20.0437 146.175 20.0143C145.984 19.9849 145.8 19.9408 145.624 19.882C145.447 19.8232 145.3 19.7423 145.182 19.6393C145.065 19.5364 145.006 19.4187 145.006 19.2864Z" fill="#033C7D"/>
<path d="M164.083 8.58735C164.216 8.58735 164.377 8.60206 164.569 8.63147C164.76 8.66088 164.944 8.705 165.12 8.76383C165.297 8.82266 165.444 8.90354 165.561 9.00649C165.679 9.10943 165.738 9.22709 165.738 9.35944C165.738 9.77123 165.73 10.161 165.716 10.5286C165.701 10.8816 165.686 11.2492 165.672 11.6316C165.672 12.014 165.664 12.4184 165.65 12.8449C165.635 13.2714 165.628 13.7641 165.628 14.3229C165.628 15.5435 165.855 16.4039 166.311 16.9039C166.767 17.3892 167.495 17.6319 168.495 17.6319C169.495 17.6319 170.223 17.3892 170.679 16.9039C171.135 16.4039 171.363 15.5435 171.363 14.3229C171.363 13.7641 171.356 13.2714 171.341 12.8449C171.326 12.4184 171.312 12.014 171.297 11.6316C171.297 11.2492 171.29 10.8816 171.275 10.5286C171.26 10.161 171.253 9.77123 171.253 9.35944C171.253 9.22709 171.312 9.10943 171.429 9.00649C171.547 8.90354 171.694 8.82266 171.87 8.76383C172.047 8.705 172.231 8.66088 172.422 8.63147C172.613 8.60206 172.775 8.58735 172.907 8.58735C173.04 8.58735 173.201 8.60206 173.393 8.63147C173.584 8.66088 173.768 8.705 173.944 8.76383C174.121 8.82266 174.268 8.90354 174.385 9.00649C174.503 9.10943 174.562 9.22709 174.562 9.35944C174.562 9.77123 174.547 10.161 174.518 10.5286C174.503 10.8816 174.481 11.2492 174.451 11.6316C174.422 12.014 174.393 12.4184 174.363 12.8449C174.348 13.2714 174.341 13.7641 174.341 14.3229C174.341 14.7935 174.348 15.2274 174.363 15.6244C174.378 16.0215 174.393 16.4112 174.407 16.7936C174.437 17.1613 174.459 17.5289 174.474 17.8966C174.503 18.2643 174.525 18.654 174.54 19.0658C174.554 19.3305 174.481 19.5437 174.319 19.7055C174.157 19.8673 173.944 19.9334 173.679 19.904C173.503 19.8893 173.341 19.8746 173.194 19.8599C173.062 19.8452 172.893 19.8379 172.687 19.8379C172.187 19.8379 171.745 19.8599 171.363 19.904C170.995 19.9482 170.65 19.9996 170.326 20.0585C170.017 20.1173 169.716 20.1688 169.422 20.2129C169.142 20.257 168.834 20.2791 168.495 20.2791C167.613 20.2791 166.804 20.132 166.069 19.8379C165.348 19.5584 164.723 19.154 164.194 18.6246C163.664 18.0951 163.252 17.4701 162.958 16.7495C162.679 16.0142 162.539 15.2053 162.539 14.3229C162.539 13.7641 162.532 13.2714 162.517 12.8449C162.502 12.4184 162.488 12.014 162.473 11.6316C162.473 11.2492 162.466 10.8816 162.451 10.5286C162.436 10.161 162.429 9.77123 162.429 9.35944C162.429 9.22709 162.488 9.10943 162.605 9.00649C162.723 8.90354 162.87 8.82266 163.047 8.76383C163.223 8.705 163.407 8.66088 163.598 8.63147C163.789 8.60206 163.951 8.58735 164.083 8.58735Z" fill="#033C7D"/>
<path d="M3.30896 24.3755C3.30896 24.1456 3.36341 23.9245 3.47231 23.7123C3.58121 23.5001 3.71733 23.3144 3.88068 23.1552C4.04403 23.0137 4.22553 22.8988 4.42518 22.8104C4.64298 22.7219 4.86078 22.6777 5.07857 22.6777C5.45972 22.6777 5.77734 22.8015 6.03144 23.0491C6.19479 23.2083 6.37629 23.3674 6.57594 23.5266C6.77559 23.6858 7.01154 23.8273 7.28379 23.9511C7.55603 24.0748 7.87366 24.1721 8.23666 24.2429C8.6178 24.3313 9.06248 24.3755 9.57067 24.3755C10.3148 24.3755 10.9591 24.2605 11.5036 24.0306C12.0663 23.8184 12.52 23.5443 12.8649 23.2083C13.2279 22.8899 13.491 22.5362 13.6544 22.1472C13.8359 21.7581 13.9266 21.3956 13.9266 21.0595C13.9266 20.3345 13.854 19.7508 13.7088 19.3087C13.5818 18.8666 13.3368 18.5306 12.9738 18.3007C12.6108 18.0708 12.1207 17.9204 11.5036 17.8497C10.9047 17.779 10.1242 17.7436 9.1623 17.7436C8.81745 17.7436 8.57243 17.5844 8.42723 17.2661C8.28203 16.9301 8.20943 16.5587 8.20943 16.1519C8.20943 15.7452 8.28203 15.3826 8.42723 15.0643C8.57243 14.7283 8.81745 14.5603 9.1623 14.5603C9.87014 14.5603 10.4782 14.5426 10.9864 14.5072C11.5127 14.4718 11.9392 14.3834 12.2659 14.2419C12.6108 14.1005 12.8558 13.8882 13.001 13.6053C13.1644 13.3223 13.246 12.9332 13.246 12.4381C13.246 12.102 13.2279 11.7749 13.1916 11.4565C13.1553 11.1382 13.0373 10.8552 12.8377 10.6077C12.6562 10.3601 12.3658 10.1655 11.9665 10.024C11.5672 9.86488 10.9954 9.7853 10.2513 9.7853C9.7431 9.7853 9.29842 9.82951 8.91728 9.91794C8.55428 9.98868 8.23666 10.0859 7.96441 10.2097C7.69216 10.3335 7.45621 10.475 7.25656 10.6342C7.05691 10.7934 6.87541 10.9525 6.71206 11.1117C6.45797 11.3593 6.14034 11.4831 5.75919 11.4831C5.5414 11.4831 5.3236 11.4389 5.1058 11.3504C4.90615 11.262 4.72465 11.1471 4.5613 11.0056C4.39795 10.8464 4.26183 10.6607 4.15293 10.4485C4.04403 10.2363 3.98958 10.0152 3.98958 9.7853C3.98958 9.44928 4.1257 9.09558 4.39795 8.7242C4.6702 8.35281 5.0695 8.00795 5.59585 7.68962C6.12219 7.37129 6.77559 7.11485 7.55603 6.92032C8.33648 6.7081 9.2349 6.60199 10.2513 6.60199C12.4474 6.60199 14.1263 7.07948 15.2879 8.03448C16.4676 8.97179 17.0575 10.4396 17.0575 12.4381C17.0575 12.9332 16.9758 13.3577 16.8125 13.7114C16.6673 14.0474 16.4949 14.3392 16.2952 14.5868C16.1137 14.8344 15.9413 15.0555 15.7779 15.25C15.6327 15.4268 15.5601 15.5949 15.5601 15.754C15.5601 15.9132 15.669 16.0989 15.8868 16.3111C16.1228 16.5056 16.3769 16.7886 16.6491 17.16C16.9214 17.5314 17.1664 18.0266 17.3842 18.6455C17.6201 19.2645 17.7381 20.0692 17.7381 21.0595C17.7381 22.0499 17.5112 22.943 17.0575 23.7388C16.6219 24.5523 16.032 25.2421 15.2879 25.808C14.5437 26.3739 13.6725 26.8072 12.6743 27.1078C11.6942 27.4085 10.6597 27.5588 9.57067 27.5588C8.55428 27.5588 7.65586 27.4527 6.87541 27.2405C6.09497 27.0459 5.44157 26.7895 4.91523 26.4712C4.38888 26.1528 3.98958 25.808 3.71733 25.4366C3.44508 25.0652 3.30896 24.7115 3.30896 24.3755Z" fill="white"/>
<path d="M19.3801 13.7644C19.3801 12.7033 19.5525 11.7395 19.8974 10.8729C20.2604 9.98868 20.7686 9.22822 21.422 8.59156C22.0754 7.95489 22.8467 7.46856 23.7361 7.13254C24.6436 6.77884 25.6418 6.60199 26.7308 6.60199C27.1483 6.60199 27.5294 6.62851 27.8743 6.68157C28.2373 6.73462 28.6093 6.79652 28.9905 6.86726C29.3898 6.938 29.8163 6.9999 30.2701 7.05296C30.742 7.10601 31.2864 7.13254 31.9035 7.13254C32.1576 7.13254 32.3664 7.1237 32.5297 7.10601C32.7112 7.08833 32.9109 7.07064 33.1287 7.05296C33.4554 7.01759 33.7185 7.09717 33.9182 7.2917C34.1178 7.48624 34.2086 7.74267 34.1904 8.061C34.1723 8.55619 34.1451 9.02484 34.1088 9.46697C34.0906 9.9091 34.0634 10.3601 34.0271 10.8199C34.0089 11.262 33.9908 11.7218 33.9726 12.1993C33.9545 12.6768 33.9454 13.1985 33.9454 13.7644C33.9454 14.3304 33.9545 14.8521 33.9726 15.3296C33.9908 15.8071 34.0089 16.2757 34.0271 16.7355C34.0634 17.1777 34.0906 17.6198 34.1088 18.0619C34.1451 18.504 34.1723 18.9727 34.1904 19.4679C34.2086 19.7862 34.1178 20.0426 33.9182 20.2372C33.7185 20.4317 33.4554 20.5113 33.1287 20.4759C32.9109 20.4582 32.7112 20.4406 32.5297 20.4229C32.3664 20.4052 32.1576 20.3964 31.9035 20.3964C31.232 20.3964 30.6603 20.4229 30.1884 20.4759C29.7165 20.529 29.29 20.5909 28.9088 20.6616C28.5277 20.7324 28.1737 20.7943 27.847 20.8473C27.5203 20.9004 27.1483 20.9269 26.7308 20.9269C25.6418 20.9269 24.6436 20.7501 23.7361 20.3964C22.8467 20.0603 22.0754 19.574 21.422 18.9373C20.7686 18.3007 20.2604 17.5491 19.8974 16.6825C19.5525 15.7982 19.3801 14.8256 19.3801 13.7644ZM26.7308 17.7436C27.965 17.7436 28.9088 17.4518 29.5622 16.8682C30.2156 16.2669 30.5423 15.2323 30.5423 13.7644C30.5423 12.2966 30.2156 11.2708 29.5622 10.6872C28.9088 10.0859 27.965 9.7853 26.7308 9.7853C25.4966 9.7853 24.5528 10.0859 23.8994 10.6872C23.246 11.2708 22.9193 12.2966 22.9193 13.7644C22.9193 15.2323 23.246 16.2669 23.8994 16.8682C24.5528 17.4518 25.4966 17.7436 26.7308 17.7436Z" fill="white"/>
<mask id="mask0" mask-type="alpha" maskUnits="userSpaceOnUse" x="3" y="6" width="31" height="22">
<path d="M3.58328 24.7867C3.58328 24.5547 3.63684 24.3315 3.74395 24.1173C3.85105 23.9031 3.98494 23.7157 4.1456 23.555C4.30627 23.4122 4.48478 23.2961 4.68115 23.2069C4.89537 23.1176 5.10958 23.073 5.3238 23.073C5.69868 23.073 6.01108 23.198 6.261 23.4479C6.42167 23.6085 6.60018 23.7692 6.79655 23.9299C6.99291 24.0905 7.22498 24.2333 7.49276 24.3583C7.76053 24.4833 8.07293 24.5814 8.42996 24.6529C8.80484 24.7421 9.2422 24.7867 9.74204 24.7867C10.474 24.7867 11.1077 24.6707 11.6432 24.4386C12.1966 24.2244 12.6429 23.9477 12.9821 23.6085C13.3391 23.2872 13.598 22.9302 13.7586 22.5375C13.9371 22.1447 14.0264 21.7788 14.0264 21.4396C14.0264 20.7077 13.955 20.1186 13.8122 19.6723C13.6872 19.226 13.4462 18.8868 13.0892 18.6548C12.7322 18.4227 12.2502 18.271 11.6432 18.1995C11.0541 18.1281 10.2865 18.0924 9.34038 18.0924C9.0012 18.0924 8.76021 17.9318 8.6174 17.6104C8.47459 17.2713 8.40318 16.8964 8.40318 16.4858C8.40318 16.0752 8.47459 15.7093 8.6174 15.3879C8.76021 15.0488 9.0012 14.8792 9.34038 14.8792C10.0366 14.8792 10.6346 14.8613 11.1345 14.8256C11.6521 14.7899 12.0717 14.7007 12.393 14.5578C12.7322 14.415 12.9732 14.2008 13.116 13.9152C13.2766 13.6296 13.357 13.2368 13.357 12.737C13.357 12.3978 13.3391 12.0676 13.3034 11.7462C13.2677 11.4249 13.1517 11.1393 12.9553 10.8894C12.7768 10.6394 12.4912 10.4431 12.0984 10.3003C11.7057 10.1396 11.1434 10.0593 10.4115 10.0593C9.91163 10.0593 9.47427 10.1039 9.09939 10.1932C8.74236 10.2646 8.42996 10.3627 8.16219 10.4877C7.89441 10.6127 7.66234 10.7555 7.46598 10.9161C7.26961 11.0768 7.0911 11.2375 6.93043 11.3981C6.68051 11.6481 6.36811 11.773 5.99323 11.773C5.77901 11.773 5.5648 11.7284 5.35058 11.6391C5.15421 11.5499 4.9757 11.4338 4.81503 11.291C4.65437 11.1304 4.52048 10.9429 4.41338 10.7287C4.30627 10.5145 4.25271 10.2913 4.25271 10.0593C4.25271 9.7201 4.3866 9.36307 4.65437 8.98819C4.92214 8.6133 5.31488 8.2652 5.83257 7.94387C6.35026 7.62255 6.99291 7.3637 7.76053 7.16734C8.52814 6.95312 9.41179 6.84601 10.4115 6.84601C12.5715 6.84601 14.2228 7.328 15.3653 8.29198C16.5256 9.23811 17.1058 10.7198 17.1058 12.737C17.1058 13.2368 17.0254 13.6653 16.8648 14.0223C16.722 14.3615 16.5524 14.656 16.356 14.9059C16.1775 15.1559 16.0079 15.379 15.8472 15.5754C15.7044 15.7539 15.633 15.9235 15.633 16.0841C15.633 16.2448 15.7401 16.4323 15.9544 16.6465C16.1864 16.8428 16.4363 17.1285 16.7041 17.5033C16.9719 17.8782 17.2129 18.3781 17.4271 19.0029C17.6592 19.6277 17.7752 20.4399 17.7752 21.4396C17.7752 22.4393 17.5521 23.3408 17.1058 24.1441C16.6773 24.9653 16.0972 25.6615 15.3653 26.2327C14.6333 26.804 13.7765 27.2413 12.7946 27.5448C11.8307 27.8483 10.8131 28 9.74204 28C8.74236 28 7.85871 27.8929 7.0911 27.6787C6.32348 27.4823 5.68083 27.2235 5.16314 26.9021C4.64545 26.5808 4.25271 26.2327 3.98494 25.8578C3.71717 25.4829 3.58328 25.1259 3.58328 24.7867Z" fill="white"/>
<path d="M19.3902 14.0759C19.3902 13.0048 19.5598 12.0319 19.899 11.1571C20.256 10.2646 20.7558 9.49695 21.3985 8.8543C22.0411 8.21165 22.7998 7.72073 23.6746 7.38155C24.5671 7.02452 25.549 6.84601 26.6201 6.84601C27.0306 6.84601 27.4055 6.87279 27.7447 6.92634C28.1017 6.9799 28.4677 7.04238 28.8426 7.11378C29.2353 7.18519 29.6548 7.24767 30.1011 7.30122C30.5652 7.35478 31.1008 7.38155 31.7077 7.38155C31.9576 7.38155 32.1629 7.37263 32.3236 7.35477C32.5021 7.33692 32.6985 7.31907 32.9127 7.30122C33.234 7.26552 33.4929 7.34585 33.6892 7.54222C33.8856 7.73858 33.9749 7.99743 33.957 8.31875C33.9392 8.8186 33.9124 9.29166 33.8767 9.73795C33.8588 10.1842 33.832 10.6394 33.7963 11.1036C33.7785 11.5499 33.7606 12.014 33.7428 12.496C33.7249 12.978 33.716 13.5046 33.716 14.0759C33.716 14.6471 33.7249 15.1737 33.7428 15.6557C33.7606 16.1377 33.7785 16.6108 33.7963 17.0749C33.832 17.5212 33.8588 17.9675 33.8767 18.4138C33.9124 18.86 33.9392 19.3331 33.957 19.833C33.9749 20.1543 33.8856 20.4131 33.6892 20.6095C33.4929 20.8059 33.234 20.8862 32.9127 20.8505C32.6985 20.8326 32.5021 20.8148 32.3236 20.7969C32.1629 20.7791 31.9576 20.7702 31.7077 20.7702C31.0472 20.7702 30.4849 20.7969 30.0208 20.8505C29.5566 20.904 29.1371 20.9665 28.7622 21.0379C28.3873 21.1093 28.0392 21.1718 27.7179 21.2254C27.3966 21.2789 27.0306 21.3057 26.6201 21.3057C25.549 21.3057 24.5671 21.1272 23.6746 20.7702C22.7998 20.431 22.0411 19.9401 21.3985 19.2974C20.7558 18.6548 20.256 17.8961 19.899 17.0213C19.5598 16.1288 19.3902 15.1469 19.3902 14.0759ZM26.6201 18.0924C27.834 18.0924 28.7622 17.7979 29.4049 17.2088C30.0475 16.6018 30.3689 15.5575 30.3689 14.0759C30.3689 12.5942 30.0475 11.5588 29.4049 10.9697C28.7622 10.3627 27.834 10.0593 26.6201 10.0593C25.4062 10.0593 24.4779 10.3627 23.8352 10.9697C23.1926 11.5588 22.8712 12.5942 22.8712 14.0759C22.8712 15.5575 23.1926 16.6018 23.8352 17.2088C24.4779 17.7979 25.4062 18.0924 26.6201 18.0924Z" fill="white"/>
</mask>
<g mask="url(#mask0)">
<path d="M3.62939 23.5259C3.92576 22.1845 5.18909 21.285 6.55358 21.4438L18.4142 22.8241C20.4477 23.0607 21.4743 25.3991 20.2722 27.0562L19.6769 27.8768C19.1105 28.6577 18.1677 29.0735 17.2091 28.9653L5.74339 27.6712C4.16345 27.4929 3.08601 25.9852 3.42903 24.4327L3.62939 23.5259Z" fill="#70A6D6"/>
</g>
</svg>
